# xmcd
#
# Track frame offsets:
# 150
# 17922
# 35453
# 46942
# 58702
# 77651
# 92137
# 105165
# 118316
# 133568
# 146806
# 160579
# 169736
#
# Disc length: 2471 seconds
#
# Revision: 1
# Processed by: cddbd v1.5.1PL0 Copyright (c) Steve Scherf et al.
# Submitted via: Axialis_AX_CDPlayer 2.6
#
DISCID=a609a50d
DTITLE=Bill Wharton and the Ingredients - Recipes
DYEAR=1900
DGENRE=
TTITLE0=She's a Monkey
TTITLE1=Ten Foot Pole
TTITLE2=Little Brother
TTITLE3=All 'Round Man
TTITLE4=Unplug the Blues
TTITLE5=Your Maytag Done Broke Down
TTITLE6=She's Mine
TTITLE7=Big Bang Theory
TTITLE8=Take This Hammer
TTITLE9=Hangin' With the Band
TTITLE10=Smackers
TTITLE11=The Cyber Blues
TTITLE12=It's Always Twilight Time
EXTD=
EXTT0=
EXTT1=
EXTT2=
EXTT3=
EXTT4=
EXTT5=
EXTT6=
EXTT7=
EXTT8=
EXTT9=
EXTT10=
EXTT11=
EXTT12=
PLAYORDER=
